<mxfile host="app.diagrams.net" agent="Mozilla/5.0 (Windows NT 10.0; Win64; x64) AppleWebKit/537.36 (KHTML, like Gecko) Chrome/135.0.0.0 Safari/537.36 Edg/135.0.0.0" version="26.2.13">
  <diagram name="Page-1" id="LFID513kN0Db79wfQ9JU">
    <mxGraphModel dx="3970" dy="1872" grid="1" gridSize="10" guides="1" tooltips="1" connect="1" arrows="1" fold="1" page="1" pageScale="1" pageWidth="850" pageHeight="1100" math="0" shadow="0">
      <root>
        <mxCell id="0" />
        <mxCell id="1" parent="0" />
        <mxCell id="gk7UQyJ1Sem1Uz6yffmo-90" value="" style="ellipse;whiteSpace=wrap;html=1;" vertex="1" parent="1">
          <mxGeometry x="128" y="447" width="110" height="69" as="geometry" />
        </mxCell>
        <mxCell id="gk7UQyJ1Sem1Uz6yffmo-89" value="" style="ellipse;whiteSpace=wrap;html=1;" vertex="1" parent="1">
          <mxGeometry x="507" y="649" width="117" height="70" as="geometry" />
        </mxCell>
        <mxCell id="gk7UQyJ1Sem1Uz6yffmo-1" value="Appointment" style="rounded=0;whiteSpace=wrap;html=1;" vertex="1" parent="1">
          <mxGeometry x="422" y="357" width="120" height="60" as="geometry" />
        </mxCell>
        <mxCell id="gk7UQyJ1Sem1Uz6yffmo-2" value="patient_id" style="ellipse;whiteSpace=wrap;html=1;" vertex="1" parent="1">
          <mxGeometry x="292" y="287" width="100" height="50" as="geometry" />
        </mxCell>
        <mxCell id="gk7UQyJ1Sem1Uz6yffmo-3" value="doctor_id" style="ellipse;whiteSpace=wrap;html=1;" vertex="1" parent="1">
          <mxGeometry x="254" y="399" width="100" height="50" as="geometry" />
        </mxCell>
        <mxCell id="gk7UQyJ1Sem1Uz6yffmo-4" value="date" style="ellipse;whiteSpace=wrap;html=1;" vertex="1" parent="1">
          <mxGeometry x="344" y="539" width="100" height="50" as="geometry" />
        </mxCell>
        <mxCell id="gk7UQyJ1Sem1Uz6yffmo-5" value="time" style="ellipse;whiteSpace=wrap;html=1;" vertex="1" parent="1">
          <mxGeometry x="424" y="489" width="100" height="50" as="geometry" />
        </mxCell>
        <mxCell id="gk7UQyJ1Sem1Uz6yffmo-6" value="&lt;u&gt;appointment_id&lt;/u&gt;" style="ellipse;whiteSpace=wrap;html=1;" vertex="1" parent="1">
          <mxGeometry x="407" y="257" width="100" height="50" as="geometry" />
        </mxCell>
        <mxCell id="gk7UQyJ1Sem1Uz6yffmo-7" value="status" style="ellipse;whiteSpace=wrap;html=1;" vertex="1" parent="1">
          <mxGeometry x="606" y="453" width="100" height="50" as="geometry" />
        </mxCell>
        <mxCell id="gk7UQyJ1Sem1Uz6yffmo-8" value="" style="endArrow=none;html=1;rounded=0;entryX=0.5;entryY=1;entryDx=0;entryDy=0;exitX=0.5;exitY=0;exitDx=0;exitDy=0;" edge="1" parent="1" source="gk7UQyJ1Sem1Uz6yffmo-1" target="gk7UQyJ1Sem1Uz6yffmo-6">
          <mxGeometry width="50" height="50" relative="1" as="geometry">
            <mxPoint x="462" y="417" as="sourcePoint" />
            <mxPoint x="512" y="367" as="targetPoint" />
          </mxGeometry>
        </mxCell>
        <mxCell id="gk7UQyJ1Sem1Uz6yffmo-9" value="" style="endArrow=none;html=1;rounded=0;entryX=0.947;entryY=0.813;entryDx=0;entryDy=0;exitX=0.194;exitY=0;exitDx=0;exitDy=0;entryPerimeter=0;exitPerimeter=0;" edge="1" parent="1" source="gk7UQyJ1Sem1Uz6yffmo-1" target="gk7UQyJ1Sem1Uz6yffmo-2">
          <mxGeometry width="50" height="50" relative="1" as="geometry">
            <mxPoint x="492" y="377" as="sourcePoint" />
            <mxPoint x="467" y="317" as="targetPoint" />
          </mxGeometry>
        </mxCell>
        <mxCell id="gk7UQyJ1Sem1Uz6yffmo-10" value="" style="endArrow=none;html=1;rounded=0;entryX=1;entryY=0.5;entryDx=0;entryDy=0;exitX=0;exitY=0.5;exitDx=0;exitDy=0;" edge="1" parent="1" source="gk7UQyJ1Sem1Uz6yffmo-1" target="gk7UQyJ1Sem1Uz6yffmo-3">
          <mxGeometry width="50" height="50" relative="1" as="geometry">
            <mxPoint x="502" y="387" as="sourcePoint" />
            <mxPoint x="372.0000000000082" y="382" as="targetPoint" />
          </mxGeometry>
        </mxCell>
        <mxCell id="gk7UQyJ1Sem1Uz6yffmo-11" value="" style="endArrow=none;html=1;rounded=0;entryX=0.5;entryY=0;entryDx=0;entryDy=0;exitX=0.25;exitY=1;exitDx=0;exitDy=0;" edge="1" parent="1" source="gk7UQyJ1Sem1Uz6yffmo-1" target="gk7UQyJ1Sem1Uz6yffmo-4">
          <mxGeometry width="50" height="50" relative="1" as="geometry">
            <mxPoint x="512" y="397" as="sourcePoint" />
            <mxPoint x="487" y="337" as="targetPoint" />
          </mxGeometry>
        </mxCell>
        <mxCell id="gk7UQyJ1Sem1Uz6yffmo-12" value="" style="endArrow=none;html=1;rounded=0;entryX=0.5;entryY=1;entryDx=0;entryDy=0;exitX=0.65;exitY=0;exitDx=0;exitDy=0;exitPerimeter=0;" edge="1" parent="1" source="gk7UQyJ1Sem1Uz6yffmo-5" target="gk7UQyJ1Sem1Uz6yffmo-1">
          <mxGeometry width="50" height="50" relative="1" as="geometry">
            <mxPoint x="522" y="407" as="sourcePoint" />
            <mxPoint x="497" y="347" as="targetPoint" />
          </mxGeometry>
        </mxCell>
        <mxCell id="gk7UQyJ1Sem1Uz6yffmo-13" value="" style="endArrow=none;html=1;rounded=0;exitX=1;exitY=1;exitDx=0;exitDy=0;entryX=0;entryY=0;entryDx=0;entryDy=0;" edge="1" parent="1" source="gk7UQyJ1Sem1Uz6yffmo-1" target="gk7UQyJ1Sem1Uz6yffmo-7">
          <mxGeometry width="50" height="50" relative="1" as="geometry">
            <mxPoint x="532" y="417" as="sourcePoint" />
            <mxPoint x="585.1562253903248" y="450.9084628066837" as="targetPoint" />
          </mxGeometry>
        </mxCell>
        <mxCell id="gk7UQyJ1Sem1Uz6yffmo-14" value="Billing" style="rounded=0;whiteSpace=wrap;html=1;flipV=0;flipH=0;" vertex="1" parent="1">
          <mxGeometry x="773" y="341" width="120" height="60" as="geometry" />
        </mxCell>
        <mxCell id="gk7UQyJ1Sem1Uz6yffmo-15" value="appointment_id" style="ellipse;whiteSpace=wrap;html=1;flipV=0;flipH=0;" vertex="1" parent="1">
          <mxGeometry x="921" y="263" width="100" height="50" as="geometry" />
        </mxCell>
        <mxCell id="gk7UQyJ1Sem1Uz6yffmo-16" value="amount" style="ellipse;whiteSpace=wrap;html=1;flipV=0;flipH=0;" vertex="1" parent="1">
          <mxGeometry x="793" y="238" width="100" height="50" as="geometry" />
        </mxCell>
        <mxCell id="gk7UQyJ1Sem1Uz6yffmo-17" value="payment_status" style="ellipse;whiteSpace=wrap;html=1;flipV=0;flipH=0;" vertex="1" parent="1">
          <mxGeometry x="793" y="481" width="100" height="50" as="geometry" />
        </mxCell>
        <mxCell id="gk7UQyJ1Sem1Uz6yffmo-18" value="payment_method" style="ellipse;whiteSpace=wrap;html=1;flipV=0;flipH=0;" vertex="1" parent="1">
          <mxGeometry x="921" y="465" width="100" height="50" as="geometry" />
        </mxCell>
        <mxCell id="gk7UQyJ1Sem1Uz6yffmo-19" value="&lt;u&gt;billing_id&lt;/u&gt;" style="ellipse;whiteSpace=wrap;html=1;flipV=0;flipH=0;" vertex="1" parent="1">
          <mxGeometry x="961" y="372" width="100" height="50" as="geometry" />
        </mxCell>
        <mxCell id="gk7UQyJ1Sem1Uz6yffmo-21" value="" style="endArrow=none;html=1;rounded=0;entryX=0;entryY=0.5;entryDx=0;entryDy=0;exitX=1;exitY=0.5;exitDx=0;exitDy=0;" edge="1" parent="1" source="gk7UQyJ1Sem1Uz6yffmo-14" target="gk7UQyJ1Sem1Uz6yffmo-19">
          <mxGeometry width="50" height="50" relative="1" as="geometry">
            <mxPoint x="813" y="391" as="sourcePoint" />
            <mxPoint x="863" y="341" as="targetPoint" />
          </mxGeometry>
        </mxCell>
        <mxCell id="gk7UQyJ1Sem1Uz6yffmo-22" value="" style="endArrow=none;html=1;rounded=0;exitX=1;exitY=0;exitDx=0;exitDy=0;entryX=0;entryY=1;entryDx=0;entryDy=0;" edge="1" parent="1" source="gk7UQyJ1Sem1Uz6yffmo-14" target="gk7UQyJ1Sem1Uz6yffmo-15">
          <mxGeometry width="50" height="50" relative="1" as="geometry">
            <mxPoint x="827.04" y="379.6999999999998" as="sourcePoint" />
            <mxPoint x="736" y="301" as="targetPoint" />
          </mxGeometry>
        </mxCell>
        <mxCell id="gk7UQyJ1Sem1Uz6yffmo-23" value="" style="endArrow=none;html=1;rounded=0;entryX=0.5;entryY=1;entryDx=0;entryDy=0;exitX=0.5;exitY=0;exitDx=0;exitDy=0;" edge="1" parent="1" source="gk7UQyJ1Sem1Uz6yffmo-14" target="gk7UQyJ1Sem1Uz6yffmo-16">
          <mxGeometry width="50" height="50" relative="1" as="geometry">
            <mxPoint x="853" y="361" as="sourcePoint" />
            <mxPoint x="828" y="301" as="targetPoint" />
          </mxGeometry>
        </mxCell>
        <mxCell id="gk7UQyJ1Sem1Uz6yffmo-24" value="" style="endArrow=none;html=1;rounded=0;entryX=0.5;entryY=0;entryDx=0;entryDy=0;exitX=0.5;exitY=1;exitDx=0;exitDy=0;" edge="1" parent="1" source="gk7UQyJ1Sem1Uz6yffmo-14" target="gk7UQyJ1Sem1Uz6yffmo-17">
          <mxGeometry width="50" height="50" relative="1" as="geometry">
            <mxPoint x="863" y="371" as="sourcePoint" />
            <mxPoint x="838" y="311" as="targetPoint" />
          </mxGeometry>
        </mxCell>
        <mxCell id="gk7UQyJ1Sem1Uz6yffmo-25" value="" style="endArrow=none;html=1;rounded=0;entryX=1;entryY=1;entryDx=0;entryDy=0;exitX=0.5;exitY=0;exitDx=0;exitDy=0;" edge="1" parent="1" source="gk7UQyJ1Sem1Uz6yffmo-18" target="gk7UQyJ1Sem1Uz6yffmo-14">
          <mxGeometry width="50" height="50" relative="1" as="geometry">
            <mxPoint x="843" y="431" as="sourcePoint" />
            <mxPoint x="818" y="371" as="targetPoint" />
          </mxGeometry>
        </mxCell>
        <mxCell id="gk7UQyJ1Sem1Uz6yffmo-27" value="Doctor" style="whiteSpace=wrap;html=1;" vertex="1" parent="1">
          <mxGeometry x="174" y="669" width="120" height="60" as="geometry" />
        </mxCell>
        <mxCell id="gk7UQyJ1Sem1Uz6yffmo-28" value="address" style="ellipse;whiteSpace=wrap;html=1;" vertex="1" parent="1">
          <mxGeometry x="345" y="699" width="110" height="60" as="geometry" />
        </mxCell>
        <mxCell id="gk7UQyJ1Sem1Uz6yffmo-29" value="phone_no" style="ellipse;whiteSpace=wrap;html=1;" vertex="1" parent="1">
          <mxGeometry x="284" y="819" width="110" height="60" as="geometry" />
        </mxCell>
        <mxCell id="gk7UQyJ1Sem1Uz6yffmo-30" value="specialization" style="ellipse;whiteSpace=wrap;html=1;" vertex="1" parent="1">
          <mxGeometry x="154" y="819" width="110" height="60" as="geometry" />
        </mxCell>
        <mxCell id="gk7UQyJ1Sem1Uz6yffmo-31" value="experience" style="ellipse;whiteSpace=wrap;html=1;" vertex="1" parent="1">
          <mxGeometry x="44" y="759" width="110" height="60" as="geometry" />
        </mxCell>
        <mxCell id="gk7UQyJ1Sem1Uz6yffmo-32" value="name" style="ellipse;whiteSpace=wrap;html=1;" vertex="1" parent="1">
          <mxGeometry x="24" y="659" width="110" height="60" as="geometry" />
        </mxCell>
        <mxCell id="gk7UQyJ1Sem1Uz6yffmo-33" value="&lt;u&gt;doctor_id&lt;/u&gt;" style="ellipse;whiteSpace=wrap;html=1;" vertex="1" parent="1">
          <mxGeometry x="335" y="609" width="110" height="60" as="geometry" />
        </mxCell>
        <mxCell id="gk7UQyJ1Sem1Uz6yffmo-34" value="registration_no" style="ellipse;whiteSpace=wrap;html=1;" vertex="1" parent="1">
          <mxGeometry x="124" y="589" width="110" height="60" as="geometry" />
        </mxCell>
        <mxCell id="gk7UQyJ1Sem1Uz6yffmo-35" value="" style="endArrow=none;html=1;rounded=0;exitX=0.994;exitY=0.367;exitDx=0;exitDy=0;exitPerimeter=0;entryX=0;entryY=1;entryDx=0;entryDy=0;" edge="1" parent="1" source="gk7UQyJ1Sem1Uz6yffmo-27" target="gk7UQyJ1Sem1Uz6yffmo-33">
          <mxGeometry width="50" height="50" relative="1" as="geometry">
            <mxPoint x="414" y="739" as="sourcePoint" />
            <mxPoint x="464" y="689" as="targetPoint" />
          </mxGeometry>
        </mxCell>
        <mxCell id="gk7UQyJ1Sem1Uz6yffmo-36" value="" style="endArrow=none;html=1;rounded=0;exitX=1;exitY=0.75;exitDx=0;exitDy=0;entryX=0;entryY=0.5;entryDx=0;entryDy=0;" edge="1" parent="1" source="gk7UQyJ1Sem1Uz6yffmo-27" target="gk7UQyJ1Sem1Uz6yffmo-28">
          <mxGeometry width="50" height="50" relative="1" as="geometry">
            <mxPoint x="303" y="701" as="sourcePoint" />
            <mxPoint x="361" y="670" as="targetPoint" />
          </mxGeometry>
        </mxCell>
        <mxCell id="gk7UQyJ1Sem1Uz6yffmo-37" value="" style="endArrow=none;html=1;rounded=0;exitX=0.75;exitY=1;exitDx=0;exitDy=0;entryX=0;entryY=0;entryDx=0;entryDy=0;" edge="1" parent="1" source="gk7UQyJ1Sem1Uz6yffmo-27" target="gk7UQyJ1Sem1Uz6yffmo-29">
          <mxGeometry width="50" height="50" relative="1" as="geometry">
            <mxPoint x="313" y="711" as="sourcePoint" />
            <mxPoint x="371" y="680" as="targetPoint" />
          </mxGeometry>
        </mxCell>
        <mxCell id="gk7UQyJ1Sem1Uz6yffmo-38" value="" style="endArrow=none;html=1;rounded=0;exitX=0.5;exitY=1;exitDx=0;exitDy=0;entryX=1;entryY=0;entryDx=0;entryDy=0;" edge="1" parent="1" source="gk7UQyJ1Sem1Uz6yffmo-27" target="gk7UQyJ1Sem1Uz6yffmo-30">
          <mxGeometry width="50" height="50" relative="1" as="geometry">
            <mxPoint x="323" y="721" as="sourcePoint" />
            <mxPoint x="381" y="690" as="targetPoint" />
          </mxGeometry>
        </mxCell>
        <mxCell id="gk7UQyJ1Sem1Uz6yffmo-39" value="" style="endArrow=none;html=1;rounded=0;exitX=0;exitY=1;exitDx=0;exitDy=0;entryX=1;entryY=0;entryDx=0;entryDy=0;" edge="1" parent="1" source="gk7UQyJ1Sem1Uz6yffmo-27" target="gk7UQyJ1Sem1Uz6yffmo-31">
          <mxGeometry width="50" height="50" relative="1" as="geometry">
            <mxPoint x="333" y="731" as="sourcePoint" />
            <mxPoint x="391" y="700" as="targetPoint" />
          </mxGeometry>
        </mxCell>
        <mxCell id="gk7UQyJ1Sem1Uz6yffmo-40" value="" style="endArrow=none;html=1;rounded=0;exitX=0;exitY=0.5;exitDx=0;exitDy=0;entryX=1;entryY=1;entryDx=0;entryDy=0;" edge="1" parent="1" source="gk7UQyJ1Sem1Uz6yffmo-27" target="gk7UQyJ1Sem1Uz6yffmo-32">
          <mxGeometry width="50" height="50" relative="1" as="geometry">
            <mxPoint x="343" y="741" as="sourcePoint" />
            <mxPoint x="401" y="710" as="targetPoint" />
          </mxGeometry>
        </mxCell>
        <mxCell id="gk7UQyJ1Sem1Uz6yffmo-41" value="" style="endArrow=none;html=1;rounded=0;exitX=0.5;exitY=1;exitDx=0;exitDy=0;entryX=0.25;entryY=0;entryDx=0;entryDy=0;" edge="1" parent="1" source="gk7UQyJ1Sem1Uz6yffmo-34" target="gk7UQyJ1Sem1Uz6yffmo-27">
          <mxGeometry width="50" height="50" relative="1" as="geometry">
            <mxPoint x="353" y="751" as="sourcePoint" />
            <mxPoint x="411" y="720" as="targetPoint" />
          </mxGeometry>
        </mxCell>
        <mxCell id="gk7UQyJ1Sem1Uz6yffmo-42" value="Patient" style="whiteSpace=wrap;html=1;" vertex="1" parent="1">
          <mxGeometry x="641" y="705" width="120" height="60" as="geometry" />
        </mxCell>
        <mxCell id="gk7UQyJ1Sem1Uz6yffmo-43" value="sickness" style="ellipse;whiteSpace=wrap;html=1;" vertex="1" parent="1">
          <mxGeometry x="551" y="805" width="110" height="60" as="geometry" />
        </mxCell>
        <mxCell id="gk7UQyJ1Sem1Uz6yffmo-44" value="address" style="ellipse;whiteSpace=wrap;html=1;" vertex="1" parent="1">
          <mxGeometry x="681" y="845" width="110" height="60" as="geometry" />
        </mxCell>
        <mxCell id="gk7UQyJ1Sem1Uz6yffmo-45" value="phone_no" style="ellipse;whiteSpace=wrap;html=1;" vertex="1" parent="1">
          <mxGeometry x="821" y="775" width="110" height="60" as="geometry" />
        </mxCell>
        <mxCell id="gk7UQyJ1Sem1Uz6yffmo-46" value="age" style="ellipse;whiteSpace=wrap;html=1;" vertex="1" parent="1">
          <mxGeometry x="841" y="685" width="110" height="60" as="geometry" />
        </mxCell>
        <mxCell id="gk7UQyJ1Sem1Uz6yffmo-47" value="name" style="ellipse;whiteSpace=wrap;html=1;" vertex="1" parent="1">
          <mxGeometry x="781" y="595" width="110" height="60" as="geometry" />
        </mxCell>
        <mxCell id="gk7UQyJ1Sem1Uz6yffmo-48" value="assigned_doctors" style="ellipse;whiteSpace=wrap;html=1;" vertex="1" parent="1">
          <mxGeometry x="509" y="655" width="110" height="60" as="geometry" />
        </mxCell>
        <mxCell id="gk7UQyJ1Sem1Uz6yffmo-49" value="&lt;u&gt;patient_id&lt;/u&gt;" style="ellipse;whiteSpace=wrap;html=1;" vertex="1" parent="1">
          <mxGeometry x="661" y="595" width="110" height="60" as="geometry" />
        </mxCell>
        <mxCell id="gk7UQyJ1Sem1Uz6yffmo-50" value="" style="endArrow=none;html=1;rounded=0;exitX=1;exitY=1;exitDx=0;exitDy=0;entryX=0;entryY=0.75;entryDx=0;entryDy=0;" edge="1" parent="1" source="gk7UQyJ1Sem1Uz6yffmo-48" target="gk7UQyJ1Sem1Uz6yffmo-42">
          <mxGeometry width="50" height="50" relative="1" as="geometry">
            <mxPoint x="597.9999999999998" y="725" as="sourcePoint" />
            <mxPoint x="378" y="726" as="targetPoint" />
          </mxGeometry>
        </mxCell>
        <mxCell id="gk7UQyJ1Sem1Uz6yffmo-51" value="" style="endArrow=none;html=1;rounded=0;exitX=1;exitY=0;exitDx=0;exitDy=0;entryX=0.25;entryY=1;entryDx=0;entryDy=0;" edge="1" parent="1" source="gk7UQyJ1Sem1Uz6yffmo-43" target="gk7UQyJ1Sem1Uz6yffmo-42">
          <mxGeometry width="50" height="50" relative="1" as="geometry">
            <mxPoint x="330" y="767" as="sourcePoint" />
            <mxPoint x="388" y="736" as="targetPoint" />
          </mxGeometry>
        </mxCell>
        <mxCell id="gk7UQyJ1Sem1Uz6yffmo-52" value="" style="endArrow=none;html=1;rounded=0;exitX=0.5;exitY=0;exitDx=0;exitDy=0;entryX=0.5;entryY=1;entryDx=0;entryDy=0;" edge="1" parent="1" source="gk7UQyJ1Sem1Uz6yffmo-44" target="gk7UQyJ1Sem1Uz6yffmo-42">
          <mxGeometry width="50" height="50" relative="1" as="geometry">
            <mxPoint x="340" y="777" as="sourcePoint" />
            <mxPoint x="398" y="746" as="targetPoint" />
          </mxGeometry>
        </mxCell>
        <mxCell id="gk7UQyJ1Sem1Uz6yffmo-53" value="" style="endArrow=none;html=1;rounded=0;exitX=0;exitY=0.5;exitDx=0;exitDy=0;entryX=1;entryY=1;entryDx=0;entryDy=0;" edge="1" parent="1" source="gk7UQyJ1Sem1Uz6yffmo-45" target="gk7UQyJ1Sem1Uz6yffmo-42">
          <mxGeometry width="50" height="50" relative="1" as="geometry">
            <mxPoint x="350" y="787" as="sourcePoint" />
            <mxPoint x="408" y="756" as="targetPoint" />
          </mxGeometry>
        </mxCell>
        <mxCell id="gk7UQyJ1Sem1Uz6yffmo-54" value="" style="endArrow=none;html=1;rounded=0;exitX=1;exitY=0.5;exitDx=0;exitDy=0;entryX=0;entryY=1;entryDx=0;entryDy=0;" edge="1" parent="1" source="gk7UQyJ1Sem1Uz6yffmo-42" target="gk7UQyJ1Sem1Uz6yffmo-46">
          <mxGeometry width="50" height="50" relative="1" as="geometry">
            <mxPoint x="360" y="797" as="sourcePoint" />
            <mxPoint x="418" y="766" as="targetPoint" />
          </mxGeometry>
        </mxCell>
        <mxCell id="gk7UQyJ1Sem1Uz6yffmo-55" value="" style="endArrow=none;html=1;rounded=0;exitX=1;exitY=0;exitDx=0;exitDy=0;entryX=0;entryY=1;entryDx=0;entryDy=0;" edge="1" parent="1" source="gk7UQyJ1Sem1Uz6yffmo-42" target="gk7UQyJ1Sem1Uz6yffmo-47">
          <mxGeometry width="50" height="50" relative="1" as="geometry">
            <mxPoint x="370" y="807" as="sourcePoint" />
            <mxPoint x="428" y="776" as="targetPoint" />
          </mxGeometry>
        </mxCell>
        <mxCell id="gk7UQyJ1Sem1Uz6yffmo-56" value="" style="endArrow=none;html=1;rounded=0;exitX=0.5;exitY=1;exitDx=0;exitDy=0;entryX=0.75;entryY=0;entryDx=0;entryDy=0;" edge="1" parent="1" source="gk7UQyJ1Sem1Uz6yffmo-49" target="gk7UQyJ1Sem1Uz6yffmo-42">
          <mxGeometry width="50" height="50" relative="1" as="geometry">
            <mxPoint x="380" y="817" as="sourcePoint" />
            <mxPoint x="438" y="786" as="targetPoint" />
          </mxGeometry>
        </mxCell>
        <mxCell id="gk7UQyJ1Sem1Uz6yffmo-58" value="Prescription" style="rounded=0;whiteSpace=wrap;html=1;flipH=0;flipV=0;direction=east;" vertex="1" parent="1">
          <mxGeometry x="-49" y="341" width="120" height="60" as="geometry" />
        </mxCell>
        <mxCell id="gk7UQyJ1Sem1Uz6yffmo-60" value="&lt;u&gt;prescription_id&lt;/u&gt;" style="ellipse;whiteSpace=wrap;html=1;flipH=0;flipV=0;direction=east;" vertex="1" parent="1">
          <mxGeometry x="-149" y="259" width="100" height="56" as="geometry" />
        </mxCell>
        <mxCell id="gk7UQyJ1Sem1Uz6yffmo-61" value="appointment_id" style="ellipse;whiteSpace=wrap;html=1;flipH=0;flipV=0;direction=east;" vertex="1" parent="1">
          <mxGeometry x="4" y="209" width="100" height="56" as="geometry" />
        </mxCell>
        <mxCell id="gk7UQyJ1Sem1Uz6yffmo-62" value="medication" style="ellipse;whiteSpace=wrap;html=1;flipH=0;flipV=0;direction=east;" vertex="1" parent="1">
          <mxGeometry x="134" y="453" width="100" height="56" as="geometry" />
        </mxCell>
        <mxCell id="gk7UQyJ1Sem1Uz6yffmo-63" value="dosage" style="ellipse;whiteSpace=wrap;html=1;flipH=0;flipV=0;direction=east;" vertex="1" parent="1">
          <mxGeometry x="4" y="463" width="100" height="56" as="geometry" />
        </mxCell>
        <mxCell id="gk7UQyJ1Sem1Uz6yffmo-64" value="frequency" style="ellipse;whiteSpace=wrap;html=1;flipH=0;flipV=0;direction=east;" vertex="1" parent="1">
          <mxGeometry x="-126" y="449" width="100" height="56" as="geometry" />
        </mxCell>
        <mxCell id="gk7UQyJ1Sem1Uz6yffmo-65" value="duration" style="ellipse;whiteSpace=wrap;html=1;flipH=0;flipV=0;direction=east;" vertex="1" parent="1">
          <mxGeometry x="-206" y="356" width="100" height="56" as="geometry" />
        </mxCell>
        <mxCell id="gk7UQyJ1Sem1Uz6yffmo-66" value="" style="endArrow=none;html=1;rounded=0;exitX=1;exitY=0;exitDx=0;exitDy=0;entryX=0;entryY=0.25;entryDx=0;entryDy=0;" edge="1" parent="1" source="gk7UQyJ1Sem1Uz6yffmo-65" target="gk7UQyJ1Sem1Uz6yffmo-58">
          <mxGeometry width="50" height="50" relative="1" as="geometry">
            <mxPoint x="21" y="477" as="sourcePoint" />
            <mxPoint x="71" y="427" as="targetPoint" />
          </mxGeometry>
        </mxCell>
        <mxCell id="gk7UQyJ1Sem1Uz6yffmo-67" value="" style="endArrow=none;html=1;rounded=0;exitX=0.5;exitY=0;exitDx=0;exitDy=0;entryX=0;entryY=1;entryDx=0;entryDy=0;" edge="1" parent="1" source="gk7UQyJ1Sem1Uz6yffmo-64" target="gk7UQyJ1Sem1Uz6yffmo-58">
          <mxGeometry width="50" height="50" relative="1" as="geometry">
            <mxPoint x="-39" y="438" as="sourcePoint" />
            <mxPoint x="-39" y="411" as="targetPoint" />
          </mxGeometry>
        </mxCell>
        <mxCell id="gk7UQyJ1Sem1Uz6yffmo-69" value="" style="endArrow=none;html=1;rounded=0;exitX=0;exitY=0;exitDx=0;exitDy=0;entryX=0.5;entryY=1;entryDx=0;entryDy=0;" edge="1" parent="1" source="gk7UQyJ1Sem1Uz6yffmo-63" target="gk7UQyJ1Sem1Uz6yffmo-58">
          <mxGeometry width="50" height="50" relative="1" as="geometry">
            <mxPoint x="-29" y="448" as="sourcePoint" />
            <mxPoint x="71" y="401" as="targetPoint" />
          </mxGeometry>
        </mxCell>
        <mxCell id="gk7UQyJ1Sem1Uz6yffmo-70" value="" style="endArrow=none;html=1;rounded=0;exitX=0;exitY=0;exitDx=0;exitDy=0;entryX=1;entryY=1;entryDx=0;entryDy=0;" edge="1" parent="1" source="gk7UQyJ1Sem1Uz6yffmo-62" target="gk7UQyJ1Sem1Uz6yffmo-58">
          <mxGeometry width="50" height="50" relative="1" as="geometry">
            <mxPoint x="-19" y="458" as="sourcePoint" />
            <mxPoint x="-19" y="431" as="targetPoint" />
          </mxGeometry>
        </mxCell>
        <mxCell id="gk7UQyJ1Sem1Uz6yffmo-71" value="" style="endArrow=none;html=1;rounded=0;exitX=0.5;exitY=1;exitDx=0;exitDy=0;entryX=0.75;entryY=0;entryDx=0;entryDy=0;" edge="1" parent="1" source="gk7UQyJ1Sem1Uz6yffmo-61" target="gk7UQyJ1Sem1Uz6yffmo-58">
          <mxGeometry width="50" height="50" relative="1" as="geometry">
            <mxPoint x="-9" y="468" as="sourcePoint" />
            <mxPoint x="-9" y="441" as="targetPoint" />
          </mxGeometry>
        </mxCell>
        <mxCell id="gk7UQyJ1Sem1Uz6yffmo-72" value="" style="endArrow=none;html=1;rounded=0;exitX=1;exitY=1;exitDx=0;exitDy=0;entryX=0.25;entryY=0;entryDx=0;entryDy=0;" edge="1" parent="1" source="gk7UQyJ1Sem1Uz6yffmo-60" target="gk7UQyJ1Sem1Uz6yffmo-58">
          <mxGeometry width="50" height="50" relative="1" as="geometry">
            <mxPoint x="1" y="478" as="sourcePoint" />
            <mxPoint x="1" y="451" as="targetPoint" />
          </mxGeometry>
        </mxCell>
        <mxCell id="gk7UQyJ1Sem1Uz6yffmo-76" value="Has" style="rhombus;whiteSpace=wrap;html=1;" vertex="1" parent="1">
          <mxGeometry x="244" y="515" width="80" height="80" as="geometry" />
        </mxCell>
        <mxCell id="gk7UQyJ1Sem1Uz6yffmo-77" value="Has" style="rhombus;whiteSpace=wrap;html=1;" vertex="1" parent="1">
          <mxGeometry x="551" y="529" width="80" height="80" as="geometry" />
        </mxCell>
        <mxCell id="gk7UQyJ1Sem1Uz6yffmo-78" value="" style="endArrow=none;html=1;rounded=0;exitX=0.5;exitY=0;exitDx=0;exitDy=0;entryX=0.5;entryY=1;entryDx=0;entryDy=0;" edge="1" parent="1" source="gk7UQyJ1Sem1Uz6yffmo-27" target="gk7UQyJ1Sem1Uz6yffmo-76">
          <mxGeometry width="50" height="50" relative="1" as="geometry">
            <mxPoint x="304" y="739" as="sourcePoint" />
            <mxPoint x="454" y="809" as="targetPoint" />
          </mxGeometry>
        </mxCell>
        <mxCell id="gk7UQyJ1Sem1Uz6yffmo-79" value="" style="endArrow=none;html=1;rounded=0;exitX=0.5;exitY=0;exitDx=0;exitDy=0;entryX=0;entryY=1;entryDx=0;entryDy=0;" edge="1" parent="1" source="gk7UQyJ1Sem1Uz6yffmo-76" target="gk7UQyJ1Sem1Uz6yffmo-1">
          <mxGeometry width="50" height="50" relative="1" as="geometry">
            <mxPoint x="244" y="679" as="sourcePoint" />
            <mxPoint x="294" y="605" as="targetPoint" />
          </mxGeometry>
        </mxCell>
        <mxCell id="gk7UQyJ1Sem1Uz6yffmo-80" value="" style="endArrow=none;html=1;rounded=0;exitX=0.5;exitY=0;exitDx=0;exitDy=0;entryX=0.75;entryY=1;entryDx=0;entryDy=0;" edge="1" parent="1" source="gk7UQyJ1Sem1Uz6yffmo-77" target="gk7UQyJ1Sem1Uz6yffmo-1">
          <mxGeometry width="50" height="50" relative="1" as="geometry">
            <mxPoint x="294" y="525" as="sourcePoint" />
            <mxPoint x="432" y="427" as="targetPoint" />
          </mxGeometry>
        </mxCell>
        <mxCell id="gk7UQyJ1Sem1Uz6yffmo-81" value="" style="endArrow=none;html=1;rounded=0;exitX=0.5;exitY=1;exitDx=0;exitDy=0;entryX=0.25;entryY=0;entryDx=0;entryDy=0;" edge="1" parent="1" source="gk7UQyJ1Sem1Uz6yffmo-77" target="gk7UQyJ1Sem1Uz6yffmo-42">
          <mxGeometry width="50" height="50" relative="1" as="geometry">
            <mxPoint x="614" y="549" as="sourcePoint" />
            <mxPoint x="522" y="427" as="targetPoint" />
          </mxGeometry>
        </mxCell>
        <mxCell id="gk7UQyJ1Sem1Uz6yffmo-82" value="Given" style="rhombus;whiteSpace=wrap;html=1;" vertex="1" parent="1">
          <mxGeometry x="164" y="337" width="80" height="80" as="geometry" />
        </mxCell>
        <mxCell id="gk7UQyJ1Sem1Uz6yffmo-83" value="" style="endArrow=none;html=1;rounded=0;exitX=1;exitY=0.5;exitDx=0;exitDy=0;entryX=0;entryY=0.25;entryDx=0;entryDy=0;" edge="1" parent="1" source="gk7UQyJ1Sem1Uz6yffmo-82" target="gk7UQyJ1Sem1Uz6yffmo-1">
          <mxGeometry width="50" height="50" relative="1" as="geometry">
            <mxPoint x="294" y="525" as="sourcePoint" />
            <mxPoint x="432" y="427" as="targetPoint" />
          </mxGeometry>
        </mxCell>
        <mxCell id="gk7UQyJ1Sem1Uz6yffmo-84" value="" style="endArrow=none;html=1;rounded=0;exitX=1;exitY=0.5;exitDx=0;exitDy=0;entryX=0;entryY=0.5;entryDx=0;entryDy=0;" edge="1" parent="1" source="gk7UQyJ1Sem1Uz6yffmo-58" target="gk7UQyJ1Sem1Uz6yffmo-82">
          <mxGeometry width="50" height="50" relative="1" as="geometry">
            <mxPoint x="254" y="387" as="sourcePoint" />
            <mxPoint x="432" y="382" as="targetPoint" />
          </mxGeometry>
        </mxCell>
        <mxCell id="gk7UQyJ1Sem1Uz6yffmo-86" value="Records" style="rhombus;whiteSpace=wrap;html=1;" vertex="1" parent="1">
          <mxGeometry x="644" y="331" width="80" height="80" as="geometry" />
        </mxCell>
        <mxCell id="gk7UQyJ1Sem1Uz6yffmo-87" value="" style="endArrow=none;html=1;rounded=0;exitX=0;exitY=0.5;exitDx=0;exitDy=0;entryX=1;entryY=0.5;entryDx=0;entryDy=0;" edge="1" parent="1" source="gk7UQyJ1Sem1Uz6yffmo-86" target="gk7UQyJ1Sem1Uz6yffmo-1">
          <mxGeometry width="50" height="50" relative="1" as="geometry">
            <mxPoint x="614" y="549" as="sourcePoint" />
            <mxPoint x="522" y="427" as="targetPoint" />
          </mxGeometry>
        </mxCell>
        <mxCell id="gk7UQyJ1Sem1Uz6yffmo-88" value="" style="endArrow=none;html=1;rounded=0;exitX=0;exitY=0.5;exitDx=0;exitDy=0;entryX=1;entryY=0.5;entryDx=0;entryDy=0;" edge="1" parent="1" source="gk7UQyJ1Sem1Uz6yffmo-14" target="gk7UQyJ1Sem1Uz6yffmo-86">
          <mxGeometry width="50" height="50" relative="1" as="geometry">
            <mxPoint x="654" y="381" as="sourcePoint" />
            <mxPoint x="552" y="397" as="targetPoint" />
          </mxGeometry>
        </mxCell>
        <mxCell id="gk7UQyJ1Sem1Uz6yffmo-91" value="1" style="text;html=1;align=center;verticalAlign=middle;whiteSpace=wrap;rounded=0;" vertex="1" parent="1">
          <mxGeometry x="74" y="341" width="60" height="30" as="geometry" />
        </mxCell>
        <mxCell id="gk7UQyJ1Sem1Uz6yffmo-92" value="1" style="text;html=1;align=center;verticalAlign=middle;whiteSpace=wrap;rounded=0;" vertex="1" parent="1">
          <mxGeometry x="354" y="342" width="60" height="30" as="geometry" />
        </mxCell>
        <mxCell id="gk7UQyJ1Sem1Uz6yffmo-93" value="1" style="text;html=1;align=center;verticalAlign=middle;whiteSpace=wrap;rounded=0;" vertex="1" parent="1">
          <mxGeometry x="244" y="639" width="60" height="30" as="geometry" />
        </mxCell>
        <mxCell id="gk7UQyJ1Sem1Uz6yffmo-94" value="M" style="text;html=1;align=center;verticalAlign=middle;whiteSpace=wrap;rounded=0;" vertex="1" parent="1">
          <mxGeometry x="379" y="435" width="60" height="30" as="geometry" />
        </mxCell>
        <mxCell id="gk7UQyJ1Sem1Uz6yffmo-95" value="1" style="text;html=1;align=center;verticalAlign=middle;whiteSpace=wrap;rounded=0;" vertex="1" parent="1">
          <mxGeometry x="654" y="674" width="60" height="30" as="geometry" />
        </mxCell>
        <mxCell id="gk7UQyJ1Sem1Uz6yffmo-96" value="M" style="text;html=1;align=center;verticalAlign=middle;whiteSpace=wrap;rounded=0;" vertex="1" parent="1">
          <mxGeometry x="482" y="433" width="60" height="30" as="geometry" />
        </mxCell>
        <mxCell id="gk7UQyJ1Sem1Uz6yffmo-97" value="1" style="text;html=1;align=center;verticalAlign=middle;whiteSpace=wrap;rounded=0;" vertex="1" parent="1">
          <mxGeometry x="535.5" y="349" width="60" height="30" as="geometry" />
        </mxCell>
        <mxCell id="gk7UQyJ1Sem1Uz6yffmo-98" value="1" style="text;html=1;align=center;verticalAlign=middle;whiteSpace=wrap;rounded=0;" vertex="1" parent="1">
          <mxGeometry x="714" y="342" width="60" height="30" as="geometry" />
        </mxCell>
      </root>
    </mxGraphModel>
  </diagram>
</mxfile>
